<svg xmlns="http://www.w3.org/2000/svg" width="64" height="64"><g stroke-width="1.595"><path fill="#e8edf1" d="M60.9 48.011c0 4.117-12.673 7.469-28.261 7.469-15.635 0-28.307-3.352-28.307-7.469 0-4.117 12.672-7.469 28.307-7.469 15.588 0 28.26 3.352 28.26 7.47z"/><path fill="#f5ea7e" fill-rule="evenodd" d="m28.4 41.979 2.552-.91 2.78-1.005 2.097-.623.41-.287.274.048.82.861.912 1.054 1.322 1.292.547.527.046.383-1.277.335-2.415.383-2.006-.047-2.051-.24-1.778-.43-1.14-.48-.82-.335-.501-.383z"/><path fill="#f5ea7e" fill-rule="evenodd" d="m37.425 35.42-1.003 3.638 3.829 4.118 1.55-.719 1.412-.813 1.094-.862.593-.575-.137-1.723-.09-1.34-.183-1.102-.73.048-2.689-.048z"/><path fill="#f5ea7e" fill-rule="evenodd" d="m25.665 35.85.957 1.293.41.862.456 1.006.273.765.274 1.006.273 1.1 1.185-.334 2.143-.862 2.05-.622 1.642-.527.73-.192.41-.335.273-.958.592-2.058.092-.623-.593-.144-1.595-.335-1.185-.287-1.46-.383-1.549-.479-1.185-.574-.593-.145h-.319l-.957.766-1.504 1.293z"/><path fill="#a3d7d5" fill-rule="evenodd" d="m23.249 33.505-.502.67-1.14.48-1.503.908-1.277 1.15-1.002 1.1-.912 1.198L16 40.303l-1.322 1.532-1.413 1.388-1.14.91-.364.766.091.527 1.049-.048.911-.192-.228.958-.455 2.297 3.418-.526-.09 1.484.318.766 3.236-2.202 5.106-3.639 2.735-1.915.41-.478-.137-1.054-.775-2.106-1.778-3.064-.957-.958-1.14-.91zm17.731 9.431 1.459-.813 2.142-1.389 1.96-2.298 1.094-1.724.592-1.1.32-.91.592.192.866.766.957.957.775 1.197.593 1.484.273 1.437.046 1.532-.547 1.388-1.14 1.389.32-.288.547.335 1.14 1.245.683.814.273.862-.182.622-.547.097-.684-.287-.319-.335.638 1.149.046.718-.365.43-.683-.143-.866-.431-.456-.384-.684-.382.41 1.005-.136.479-.137.239-.638-.287-1.231-.431-1.914-1.149-2.188-1.484-1.459-1.676-.091-.527.273-.526.32-.193-.639-.287zM52.375 16.51l1.322-.814 1.915-1.292.683-.575.274.814.319 1.628-.046.24.958-1.437.547-.431h.182l.045.91v1.675l-.045.623.456-.048.82-.144.274.097-.775 1.675-1.094 1.676-1.459 2.01-.912 1.15-2.279 2.729-1.321 1.34-1.414 1.245-1.458 1.292v-.766l-.137-3.35.82-1.102.821-1.053.82-1.724.548-2.346.136-2.202v-.862l-.182-.91zm-32.727-4.357h-.274l-.456-.047h-1.23l-.502.047v.431l.274 1.245.41 1.436.502 1.532 1.002 2.25 1.003 2.203 1.459 2.537 1.322 1.389 1.413 1.244.592.431.228.287 1.185-.765 1.277-1.34 1.139-1.629.365-1.1-.137-.671-.593-2.01v-2.203l-.455-.527-2.052-1.915-1.23-1.292L23.43 12.2l-1.23-1.149-.821-.67-1.003-.766-.456-.192-.136-.144-.228.383.09 1.005v1.053z"/><path fill="#f5ea7e" fill-rule="evenodd" d="m41.892 29.627 3.145.67 4.239.097.228-.527s-.091-1.34-.091-1.436c0-.097-.046-1.245-.046-1.245v-.43l-1.55 1.1-2.188 1.15-2.142.478zm-12.58-7.277-.73 1.771-1.003 1.293.228.383 3.236 1.388 1.823.766 2.599.575 1.458.287-2.871-1.388-2.826-2.442-1.322-1.82-.456-.86z"/><path fill="#eaede6" fill-rule="evenodd" d="m27.625 16.366 1.185-.814-.137 1.723z"/><path fill="#a3d7d5" stroke="#000" stroke-linecap="round" stroke-linejoin="round" stroke-width=".82" d="M52.375 18.233c0 6.463-4.01 11.394-10.711 11.394-6.7 0-13.037-4.931-13.037-11.394 0-3.687 1.915-7.708 4.65-9.863 2.096-1.627 4.603-1.867 7.475-1.867 4.194 0 7.248 2.202 9.435 5.314 1.322 1.868 2.188 3.974 2.188 6.416z"/><path fill="#f5ea7e" fill-rule="evenodd" d="m39.248 29.531-.593 2.202-1.048 3.447 3.464.767 3.419.047 4.695-4.07.228-1.58-.639.048-2.871.048-.866-.097-1.687-.24-1.64-.334-.821-.144-.82-.048z"/><path fill="#f5ea7e" fill-rule="evenodd" d="m44.627 35.898 2.233-1.962 1.641-1.34.638-.527-.319 1.723-.82 2.059-1.277 2.298-1.55 1.867-.227.097-.274-1.724v-1.723z"/><path fill="#dcd487" fill-rule="evenodd" d="M27.032 37.718s1.094 1.053 6.518 3.351c5.47 2.298 9.481.527 9.481.527l.137.144-1.049.67-2.78 1.15-3.008.478-3.009-.144-3.829-1.053-1.23-.67.045-.719-.364-1.245-.547-1.58z"/><path fill="#73b4b5" fill-rule="evenodd" d="M50.962 44.803s-2.871-.67-4.467-1.819c-1.504-1.053-1.732-2.633-1.686-2.729.046-.144-.912 1.006-.912 1.006l-1.413.862-1.504.718.912 1.053 1.185.718 2.279.622 1.914.097z"/><path fill="#6db4b9" fill-rule="evenodd" d="m49.321 26.946.092 3.59 2.552-1.962 2.37-2.346 1.186-1.58s-1.277.718-4.057 1.915c-2.78 1.197-2.143.383-2.143.383z"/><path fill="none" stroke="#000" stroke-linecap="round" stroke-linejoin="round" stroke-width=".82" d="M49.23 26.707c.137.718.183 1.819.183 2.633 0 8.33-6.245 14.697-14.085 14.697-2.644 0-5.06-.67-7.157-1.915"/><path fill="#f5ea7e" fill-rule="evenodd" d="m26.576 26.754 2.507 6.272 3.92 1.34 4.24 1.006.364-.24 1.778-5.505-.41-.287-6.428-1.532-5.15-2.203-.958.862z"/><path fill="#dcd487" fill-rule="evenodd" d="m27.11 25.822.875-.773.803-1.201.313-.636.368-.67.368.574s.257.517.598 1.005c.341.489 1.556 1.79 1.556 1.79l1.571 1.226 2.279 1.343 1.584.572.079-.04 1.555.306c-.782.287-2.692 1.555-7.52-.456-1.564-.622-3.476-1.795-4.487-3.04z" opacity=".67"/><path fill="#73b4b5" fill-rule="evenodd" d="m19.42 19.142.912 2.107.866 1.675 1.823 2.203 1.732 1.532.501.383 1.049-.431 1.322-1.15s.136.958-3.601-2.393c-3.692-3.351-4.604-3.926-4.604-3.926z"/><path fill="none" stroke="#000" stroke-linecap="round" stroke-linejoin="round" stroke-width=".82" d="M29.448 22.11c-.684 2.203-2.325 4.5-4.467 5.075"/><path fill="#eaede6" fill-rule="evenodd" d="m23.02 25.51-.09 1.675-.365 2.06-.501 1.914-.593 1.436-.228.527.274 1.484 1.14-.383.637-.622.73-1.676.592-1.58.274-2.154.09-1.293-.136-.335-.592-.383-.593-.383-.501-.431z"/><path fill="none" stroke="#000" stroke-linecap="round" stroke-linejoin="round" stroke-width=".82" d="M24.89 26.898c.045.383.045.862 0 1.245-.183 2.154-.638 3.926-1.87 5.65"/><path fill="#5ba3a5" fill-rule="evenodd" d="m16.776 50.166 5.789-3.974 5.242-3.782.547-.575-.456-1.628-.228-1.005-.73-1.484z"/><path fill="none" stroke="#000" stroke-linecap="round" stroke-linejoin="round" stroke-width=".82" d="M23.203 33.553c2.78 2.058 4.513 4.979 5.105 8.378"/><path fill="none" stroke="#000" stroke-linecap="round" stroke-width=".82" d="m26.44 26.515 2.598 6.463L25.8 35.66"/><path fill="none" stroke="#000" stroke-width=".82" d="m28.992 32.93 4.057 1.437 4.421 1.005 1.823-5.84"/><path fill="none" stroke="#000" stroke-linecap="round" stroke-width=".82" d="m27.67 25.701 4.877 2.107 4.878 1.197"/><path fill="none" stroke="#000" stroke-width=".82" d="m49.276 30.393-4.057-.048-4.011-.622"/><path fill="none" stroke="#000" stroke-linecap="round" stroke-width=".82" d="m49.23 31.925-4.786 4.07h-3.373l-3.6-.623-1.095 3.734 3.738 3.878m4.421-6.846.41 3.974m-16.5 1.77 7.886-2.68"/><path fill="#78b7b8" fill-rule="evenodd" d="m50.734 44.851-3.373.335-2.324-.144-1.87-.526-.774.43.228 1.006 1.823 1.82 2.69 1.77 2.552 1.245-2.598-2.776-2.006-1.676s-1.048.047 2.598-.575c3.647-.574 3.054-.91 3.054-.91z"/><path fill="none" stroke="#000" stroke-linecap="round" stroke-linejoin="round" stroke-width=".82" d="M48.638 34.654c2.507 1.197 3.555 3.59 3.965 5.984.365 2.25-.729 3.974-2.689 4.931m-2.416-.287h-.592c-2.462 0-4.65-.814-5.972-2.394M42.894 44.564c-.182.097-.319.192-.364.383-.502 1.101 1.96 3.351 5.47 5.075.638.287 1.276.574 1.914.814"/><path fill="none" stroke="#000" stroke-width=".82" d="M49.868 50.836s.456-1.197-.136-1.82c-.547-.622 2.279 1.916 3.008 1.15.593-.67-.957-2.49-.957-2.49s1.458 1.436 1.914.862C54.7 47.34 51.1 44.612 51.1 44.612"/><path fill="#a3d7d5" fill-rule="evenodd" d="m9.073 31.446 1.185 1.58 1.595 1.58 1.824 1.197 2.415.67 1.687.144.866.144 1.413-1.149 1.003-.574.364-.527-.182-1.053-.228-1.58-.638-.91-5.196-8.473-1.504-2.586-2.006-1.627-1.504-.431-1.778.047-1.914.766-1.14 1.293-.775 1.724-.273 1.723.137 2.968.82 1.963.957 1.532 1.459.958 1.23.479z"/><path fill="#52a3ab" fill-rule="evenodd" d="M20.012 30.44s1.08 2.1-3.815 2.873c-5.51.869-7.352-1.962-7.352-1.962l1.55 1.819 2.715 2.424 3.165.927 1.504.047h1.185l1.504-1.388.957-.43-.273-1.58-.182-1.245z"/><path fill="none" stroke="#000" stroke-width=".82" d="M28.217 42.027s-7.886 5.936-11.304 8.09c-.593.384-.365-2.202-.365-2.202l-3.418.575.638-3.256s-1.003 0-1.96.097c-.684.048.638-1.245 1.14-1.867.546-.622 1.731-1.484 2.233-2.154 1.458-1.868 2.233-3.16 3.692-4.645.684-.67 1.367-1.292 2.142-1.77.456-.288 1.049-.384 1.504-.67.137-.098.456-.336.456-.336"/><path fill="#c6630c" fill-rule="evenodd" d="m21.562 23.882-.547 3.16-.045 4.356.258 1.513.608-.938.683-2.394.547-3.16-.052-1.204-.86-.998-.5-.622z"/><path fill="none" stroke="#000" stroke-linecap="round" stroke-linejoin="round" stroke-width=".82" d="M21.446 34.553c-.364-1.58-.526-3.408-.526-5.131 0-2.059.232-4.008.688-5.875m6.017-7.182c.09-.047.09-.047.182-.144.364-.287.73-.526 1.094-.766M25.209 26.85c-2.234-1.34-3.966-3.447-5.014-5.888"/><path fill="none" stroke="#000" stroke-width=".82" d="m20.286 21.249-2.006-4.5-1.23-4.644h2.643s-.455-3.16.32-2.73c1.55.958 3.51 2.921 3.51 2.921l5.059 5.123"/><path fill="none" stroke="#000" stroke-linecap="round" stroke-linejoin="round" stroke-width=".82" d="M60.079 17.802c-2.325 4.308-5.972 9.192-10.666 12.83m6.882-16.9a20.317 20.317 0 0 1-4.01 2.777m4.01-2.824c.456.67.502 1.58.502 2.537 0 .192-.091.287-.091.43m0 0a6.98 6.98 0 0 1 1.595-2.058m.182.048c0 .622.137 2.585.091 3.16m-1.868-1.15a6.98 6.98 0 0 1 1.595-2.058m.41 3.256c.866-.145.593-.097 1.413-.193m-37.058 7.518c0 .047 0-.097 0 0-.045 2.872-.683 5.601-1.868 7.995"/><path fill="none" stroke="#000" stroke-linecap="round" stroke-linejoin="round" stroke-width=".82" d="M21.927 23.978v.047c-.502 2.825-.53 4.446.108 7.032"/><path fill="#52a3ab" fill-rule="evenodd" d="M12.446 25.653s-.365 1.963-1.276 3.112c-.639.766-1.641 1.053-2.644.91-.957-.192-1.778-.862-2.37-1.676-.958-1.245-1.96-4.308-1.96-4.308l.41 3.59 1.048 1.82 1.641 1.531 1.823.719 1.413-.193 1.322-.91.73-1.819.09-1.723z"/><path fill="none" stroke="#000" stroke-linecap="round" stroke-linejoin="round" stroke-width=".82" d="M9.62 31.303c-2.963 0-5.379-3.112-5.379-6.894 0-3.83 1.96-6.607 4.923-6.607 2.097 0 4.33 1.197 5.196 3.351"/><path fill="none" stroke="#000" stroke-linecap="round" stroke-linejoin="round" stroke-width=".82" d="M7.797 27.76c-.228-1.101-.456-2.298-.183-3.16.32-1.005 1.413-1.484 2.28-1.436 1.595 0 2.78 1.82 2.78 4.07s-1.185 4.02-2.69 4.02c-.182 0-.41.048-.592 0"/><path fill="none" stroke="#000" stroke-width=".82" d="m14.406 21.2 3.692 6.177 2.909 4.488m-12.025-.562s1.367 2.202 3.829 3.973c1.686 1.245 6.107 1.436 6.107 1.436"/><path fill="#e27e81" fill-rule="evenodd" d="m32.73 21.823-.684.287-.365.91 1.231 1.963 1.459 1.293 1.777 1.053 2.234.718 1.96.287 2.507-.096 1.458-.288 1.231-.335.593-.43.182-.48.046-.478-.228-.431-.137-.287-.73-.048-1.276-.335-1.002-.287-1.185-.24-1.094.097-1.46.24-.728-.623-.639-.479-1.458-.861-1.368-.623-1.048-.096-.775-.24z"/><path fill="#463839" fill-rule="evenodd" d="m30.36 19.86.41 1.197.41 1.245.365.574.273-.526.137-.383.501-.192.274-.144-.684-.527-.593-.335-.638-.575zm15.725 5.65 1.003-.048 1.823-.144-.182.335-.638.574-.912.479-.638.479h-.273l.045-.383v-.336l-.045-.382-.183-.527z"/><path fill="#662127" fill-rule="evenodd" d="m34.675 12.46-1.038 1.068-.849 1.7-.424 2.427.141 1.65 1.934 1.07 1.227-1.992.801-2.379-.047-1.748-.519-.825-.377-.631z"/><path fill="none" stroke="#000" stroke-linecap="round" stroke-linejoin="round" stroke-width=".82" d="M49.276 25.27c-2.097 1.772-4.74 3.112-7.749 3.112-6.108 0-9.937-3.207-11.168-8.617"/><path fill="none" stroke="#000" stroke-width=".82" d="M30.314 19.765c.228.096 2.188 2.25 4.148 2.393 1.96.193 4.74 2.73 4.74 2.73s2.598-.671 4.558.191c1.915.815 5.47.193 5.47.193"/><path fill="none" stroke="#000" stroke-width=".82" d="M31.59 23.164s.091-.814.32-1.101c.227-.24 1.002-.431 1.002-.431m13.219 5.65s.228-.767.228-1.006c-.046-.287-.456-.814-.456-.814"/><path fill="#fff" fill-rule="evenodd" d="m31.364 18.743.138-1.27.29-1.712.345-1.077.386-1.036.663-.704.677-.4.538-.07.387-.027-.152.331-.4.263-.65.787-.33.552-.374.8-.207.843-.096.635-.042 1.173.125 1.52-.94-.401z"/><path fill="none" stroke="#000" stroke-width=".82" d="m31.362 18.76 3.191 1.531s1.595-2.25 1.869-4.452c.228-1.676-.82-3.543-1.869-3.4-.866.097-1.595.48-2.097 1.485-.957 1.82-1.094 4.835-1.094 4.835z"/><path fill="#fff" fill-rule="evenodd" d="m47.848 23.216-.014-.138.276-.663.566-1.422.511-2.016.014-.607v-.69l-.345-1.05-.276-.497-.18-.18h.36l.676.498.497.925.262 1.05-.207 1.463-.387 1.187-.524 1.284-.442.925z"/><path fill="#662127" fill-rule="evenodd" d="m45.538 23.02 2.234.145 1.276-3.256.228-2.01-.502-1.58-.319-.336-.638-.048-1.048.718-.456 1.34-.501 1.724-.274 2.394z"/><path fill="none" stroke="#000" stroke-width=".82" d="m45.447 23.116 3.236.097s1.413-2.538 1.459-4.549c0-.766-.365-1.819-.82-2.297-.365-.431-.73-.384-1.14-.48-2.416-.382-2.735 7.23-2.735 7.23z"/><path fill="none" stroke="#000" stroke-linecap="round" stroke-width=".82" d="M46.678 15.839c.41-1.053.775-1.293 1.14-1.724m-10.439-.526c-.137-.67-.046-1.437-.73-1.963"/><path fill="none" stroke="#000" stroke-width=".82" d="M32.639 19.334c-.456-3.735.592-5.65 2.233-6.799m12.9 10.677c1.048-2.538 2.279-5.362.638-7.23"/><path fill-rule="evenodd" stroke="#000" stroke-width=".82" d="M38.564 21.105s.091 1.005.365 1.34c.045.048.182 0 .228-.047.045 0 .09-.097.09-.192-.045-.431-.683-1.101-.683-1.101zm2.78 1.915s.73-.67 1.14-.718c.091 0 .137.097.137.144.046.048.046.144 0 .193-.365.335-1.276.382-1.276.382z"/><path fill="#f5ea7e" fill-rule="evenodd" stroke="#000" stroke-width=".82" d="m25.71 35.755 3.328-2.729-2.599-6.463-1.413.622-.227 1.772-.365 1.963-.82 2.154-.41.479z"/><path fill="none" stroke="#000" stroke-linecap="round" stroke-width=".82" d="M20.787 13.589s-.136-.862-.045-1.293c.045-.287.911.383.911.383"/><path d="M36.24 15.695c-.228 1.58-1.14 2.825-2.006 2.73-.82-.098-1.322-1.485-1.094-3.065.228-1.58 1.094-2.825 1.96-2.729.866.097 1.367 1.484 1.14 3.064zm12.945 3.016c-.228 1.437-1.094 2.538-1.915 2.442-.82-.048-1.322-1.293-1.094-2.729.228-1.436 1.094-2.537 1.915-2.442.82.097 1.322 1.293 1.094 2.73z"/><path fill="#fff" d="M35.92 15.217c-.182 1.149-.82 2.01-1.413 1.914-.638-.047-.957-1.005-.82-2.154.182-1.149.82-2.01 1.413-1.915.638.048.957 1.006.82 2.155zm12.946 3.16c-.183 1.148-.866 2.058-1.505 1.962-.683-.047-1.048-1.053-.866-2.202.137-1.149.82-2.01 1.505-1.915.638.047 1.048 1.053.866 2.154z"/></g></svg>