<svg xmlns="http://www.w3.org/2000/svg" viewBox="0 0 64 64"><path fill="#7a0000" d="M62,25a1,1,0,0,0-1,1c0,.82-1,1.95-3.41,3.08a4.68,4.68,0,0,1-.45.2c-.47.21-1,.42-1.58.62l-.83.27c-.3.1-.62.2-1,.29h0l-.25.08c-.95.27-2,.51-3,.74l-.94.19-.15,0-.43.08-.76.14-.09,0L46.46,32l-1.54.21-1.58.19-1.08.11-.68.07-.52,0-.79.06-1.33.1q-1.12.07-2.28.12l-1.15,0q-.59,0-1.17,0Q33.17,33,32,33t-2.34,0q-.59,0-1.17,0l-1.15,0q-1.15,0-2.28-.12l-1.33-.1-.79-.06-.52,0-.68-.07-1.08-.11-1.58-.19L17.54,32l-1.64-.26-.09,0-.76-.14-.43-.08-.15,0-.94-.19c-1.07-.23-2.09-.47-3-.74l-.25-.08h0c-.34-.09-.66-.19-1-.29l-.83-.27c-.58-.2-1.11-.41-1.58-.62a4.68,4.68,0,0,1-.45-.2C4,28,3,26.82,3,26a1,1,0,0,0-2,0V37a4.34,4.34,0,0,0,2,3.39,11.51,11.51,0,0,0,1.59,1l.63.33.69.31c.23.11.48.21.73.31.51.2,1.05.4,1.62.59,5.82,1.94,14.47,3,23.74,3s17.92-1.11,23.74-3c.57-.19,1.11-.39,1.62-.59.25-.1.5-.2.73-.31l.69-.31.63-.33a11.51,11.51,0,0,0,1.59-1A4.34,4.34,0,0,0,63,37V26A1,1,0,0,0,62,25Zm-6.9,16c-5.62,1.87-14,3-23.1,3s-17.48-1.08-23.1-3C5.2,39.82,3,38.31,3,37V29.37a3.18,3.18,0,0,0,.35.26,5.41,5.41,0,0,0,.53.35,16.67,16.67,0,0,0,3,1.45c.15.07.31.13.48.19.8.29,1.68.57,2.63.84A84.93,84.93,0,0,0,32,35a84.93,84.93,0,0,0,22-2.54c1-.27,1.83-.55,2.63-.84.17-.06.33-.12.48-.19a16.67,16.67,0,0,0,3-1.45,5.41,5.41,0,0,0,.53-.35,3.18,3.18,0,0,0,.35-.26V37C61,38.31,58.8,39.82,55.1,41.05Z"/><path fill="#7a0000" d="M54.05,30.54l-.28-.08h0A59.39,59.39,0,0,0,46.44,29c-.82-.13-1.66-.24-2.51-.33A101.75,101.75,0,0,0,33,28H31a101.75,101.75,0,0,0-10.93.64c-.85.09-1.69.2-2.51.33a59.39,59.39,0,0,0-7.32,1.48h0l-.28.08a1,1,0,0,0,0,1.92A84.93,84.93,0,0,0,32,35a84.93,84.93,0,0,0,22-2.54,1,1,0,0,0,0-1.92Zm-5.1,1-.76.14-.09,0L46.46,32l-1.54.21-1.58.19-1.08.11-.68.07-.52,0-.79.06-1.33.1q-1.12.07-2.28.12l-1.15,0q-.59,0-1.17,0Q33.17,33,32,33t-2.34,0q-.59,0-1.17,0l-1.15,0q-1.15,0-2.28-.12l-1.33-.1-.79-.06-.52,0-.68-.07-1.08-.11-1.58-.19L17.54,32l-1.64-.26-.09,0-.76-.14-.43-.08A95.22,95.22,0,0,1,32,30a95.22,95.22,0,0,1,17.38,1.5Z"/><path fill="#7a0000" d="M53,19.28c-.64-.17-1.31-.33-2-.48a85.72,85.72,0,0,0-13-1.63l-2-.1C34.67,17,33.33,17,32,17s-2.67,0-4,.07l-2,.1A85.72,85.72,0,0,0,13,18.8c-.69.15-1.36.31-2,.48C5.06,20.79,1,23.05,1,26a4.32,4.32,0,0,0,2,3.37,3.18,3.18,0,0,0,.35.26,5.41,5.41,0,0,0,.53.35,16.67,16.67,0,0,0,3,1.45c.15.07.31.13.48.19.8.29,1.68.57,2.63.84A84.93,84.93,0,0,0,32,35a84.93,84.93,0,0,0,22-2.54c1-.27,1.83-.55,2.63-.84.17-.06.33-.12.48-.19a16.67,16.67,0,0,0,3-1.45,5.41,5.41,0,0,0,.53-.35,3.18,3.18,0,0,0,.35-.26A4.32,4.32,0,0,0,63,26C63,23.05,58.94,20.79,53,19.28Zm4.59,9.8a4.68,4.68,0,0,1-.45.2c-.47.21-1,.42-1.58.62l-.83.27c-.3.1-.62.2-1,.29h0l-.25.08c-.95.27-2,.51-3,.74l-.94.19-.15,0-.43.08-.76.14-.09,0L46.46,32l-1.54.21-1.58.19-1.08.11-.68.07-.52,0-.79.06-1.33.1q-1.12.07-2.28.12l-1.15,0q-.59,0-1.17,0Q33.17,33,32,33t-2.34,0q-.59,0-1.17,0l-1.15,0q-1.15,0-2.28-.12l-1.33-.1-.79-.06-.52,0-.68-.07-1.08-.11-1.58-.19L17.54,32l-1.64-.26-.09,0-.76-.14-.43-.08-.15,0-.94-.19c-1.07-.23-2.09-.47-3-.74l-.25-.08h0c-.34-.09-.66-.19-1-.29l-.83-.27c-.58-.2-1.11-.41-1.58-.62a4.68,4.68,0,0,1-.45-.2C4,28,3,26.82,3,26c0-2.92,11-7,29-7s29,4.08,29,7C61,26.82,60,28,57.59,29.08Z"/><path fill="#7a0000" d="M49.38,31.5l-.43.08-.76.14-.09,0L46.46,32l-1.54.21-1.58.19-1.08.11-.68.07-.52,0-.79.06-1.33.1q-1.12.07-2.28.12l-1.15,0q-.59,0-1.17,0Q33.17,33,32,33t-2.34,0q-.59,0-1.17,0l-1.15,0q-1.15,0-2.28-.12l-1.33-.1-.79-.06-.52,0-.68-.07-1.08-.11-1.58-.19L17.54,32l-1.64-.26-.09,0-.76-.14-.43-.08A95.22,95.22,0,0,1,32,30,95.22,95.22,0,0,1,49.38,31.5Z" opacity=".5"/><path fill="#7a0000" d="M61,26c0,.82-1,1.95-3.41,3.08a4.68,4.68,0,0,1-.45.2c-.47.21-1,.42-1.58.62l-.83.27c-.3.1-.62.2-1,.29h0A59.39,59.39,0,0,0,46.44,29l4.27-4.27a1,1,0,0,0-1.42-1.42l-5.36,5.36A101.75,101.75,0,0,0,33,28V22a1,1,0,0,0-2,0v6a101.75,101.75,0,0,0-10.93.64l-5.36-5.36a1,1,0,0,0-1.42,1.42L17.56,29a59.39,59.39,0,0,0-7.32,1.48h0c-.34-.09-.66-.19-1-.29l-.83-.27c-.58-.2-1.11-.41-1.58-.62a4.68,4.68,0,0,1-.45-.2C4,28,3,26.82,3,26c0-2.92,11-7,29-7S61,23.08,61,26Z" opacity=".5"/><path fill="#7a0000" d="M38,48H26a1,1,0,0,0-1,1v5.84a1,1,0,0,0,.95,1C28,56,30,56,32,56s4,0,6-.16a1,1,0,0,0,1-1V49A1,1,0,0,0,38,48Zm-1,5.89h-.58L35,54C33,54,31,54,29,54l-1.38-.05H27V50H37Z"/><path fill="#7a0000" d="M62,36a1,1,0,0,0-1,1c0,1.31-2.2,2.82-5.9,4-5.62,1.87-14,3-23.1,3s-17.48-1.08-23.1-3C5.2,39.82,3,38.31,3,37a1,1,0,0,0-2,0V47c0,5.17,12.53,8.17,25,8.84C28,56,30,56,32,56s4,0,6-.16c12.42-.67,25-3.67,25-8.84V37A1,1,0,0,0,62,36ZM61,47c0,2.62-8.38,5.9-22,6.78l-1,.06-1,0-.29,0h-.29L35,54C33,54,31,54,29,54l-1.38-.05h-.29l-.29,0-.95,0L25,53.78C11.38,52.9,3,49.62,3,47V40.39a11.51,11.51,0,0,0,1.59,1l.63.33.69.31c.23.11.48.21.73.31.51.2,1.05.4,1.62.59,5.82,1.94,14.47,3,23.74,3s17.92-1.11,23.74-3c.57-.19,1.11-.39,1.62-.59.25-.1.5-.2.73-.31l.69-.31.63-.33a11.51,11.51,0,0,0,1.59-1Z"/><path fill="#7a0000" d="M37,50v3.88l-.29,0h-.29L35,54C33,54,31,54,29,54l-1.38-.05h-.29l-.29,0V50Z" opacity=".5"/><path fill="#7a0000" d="M40,8H24a1,1,0,0,0-1,1v6a1,1,0,0,0,1,1H40a1,1,0,0,0,1-1V9A1,1,0,0,0,40,8Zm-1,6H25V10H39Z"/><path fill="#7a0000" d="M27 19a1 1 0 0 1-1-1V15a1 1 0 0 1 2 0v3A1 1 0 0 1 27 19zM37 19a1 1 0 0 1-1-1V15a1 1 0 0 1 2 0v3A1 1 0 0 1 37 19zM13 8.84a.24.24 0 0 0 0-.09.14.14 0 0 0 0-.07.72.72 0 0 0-.09-.2.71.71 0 0 0-.1-.14l-.07-.07a.66.66 0 0 0-.2-.14l0 0L12.23 8A.85.85 0 0 0 12 8a1 1 0 0 0-.71.29l-6.87 4.9A1 1 0 0 0 5 15h7a1 1 0 0 0 1-1V9A.41.41 0 0 0 13 8.84zM11 13H8.12L11 10.94z"/><path fill="#7a0000" d="M12 21a1 1 0 0 1-1-1V9a1 1 0 0 1 2 0V20A1 1 0 0 1 12 21zM59.58 13.19l-6.87-4.9A1 1 0 0 0 52 8a.85.85 0 0 0-.23 0l-.22.08 0 0a.66.66 0 0 0-.2.14l-.07.07a.71.71 0 0 0-.1.14.72.72 0 0 0-.09.2.14.14 0 0 0 0 .07.24.24 0 0 0 0 .09A.41.41 0 0 0 51 9v5a1 1 0 0 0 1 1h7a1 1 0 0 0 .58-1.81zM53 13V10.94L55.88 13z"/><path fill="#7a0000" d="M52 21a1 1 0 0 1-1-1V9a1 1 0 0 1 2 0V20A1 1 0 0 1 52 21zM33 28v1a1 1 0 0 1-2 0V28h2zM20.41 30.41a1 1 0 0 1-1.42 0L17.56 29c.82-.13 1.66-.24 2.51-.33l.34.34A1 1 0 0 1 20.41 30.41zM46.44 29L45 30.41a1 1 0 0 1-1.42 0 1 1 0 0 1 0-1.42l.34-.34C44.78 28.74 45.62 28.85 46.44 29z"/><path fill="#7a0000" d="M32 42.5a1 1 0 0 1-1-1v-3a1 1 0 0 1 2 0v3A1 1 0 0 1 32 42.5zM42 42a1 1 0 0 1-1-1V38a1 1 0 0 1 2 0v3A1 1 0 0 1 42 42zM22 42a1 1 0 0 1-1-1V38a1 1 0 0 1 2 0v3A1 1 0 0 1 22 42zM13 40a1 1 0 0 1-1-1V36a1 1 0 0 1 2 0v3A1 1 0 0 1 13 40zM6 38a1 1 0 0 1-1-1V34a1 1 0 0 1 2 0v3A1 1 0 0 1 6 38zM51 40a1 1 0 0 1-1-1V36a1 1 0 0 1 2 0v3A1 1 0 0 1 51 40zM58 38a1 1 0 0 1-1-1V34a1 1 0 0 1 2 0v3A1 1 0 0 1 58 38z" opacity=".5"/></svg>