<svg xmlns="http://www.w3.org/2000/svg" enable-background="new 0 0 66 66" viewBox="0 0 66 66"><path d="M57.8,25.1c-0.5-1.4-1-2.8-1.7-4.1c-1.4,1-3,1.5-4.7,1.5c-6.5,0-10.3-7.4-6.4-12.7c-1.3-0.7-2.7-1.3-4.1-1.7
		c-1.4,9-14.4,9-15.7,0c-1.4,0.5-2.8,1-4.1,1.7c5.4,7.3-3.9,16.5-11.1,11.1c-0.7,1.3-1.3,2.7-1.7,4.1c9,1.4,9,14.4,0,15.7
		c0.5,1.4,1,2.8,1.7,4.1c1.4-1,3-1.5,4.7-1.5c6.5,0,10.3,7.4,6.4,12.7c1.3,0.7,2.7,1.3,4.1,1.7c1.4-9,14.4-9,15.7,0
		c1.4-0.5,2.8-1,4.1-1.7c-3.8-5.2-0.1-12.7,6.4-12.7c1.7,0,3.3,0.5,4.7,1.5c0.7-1.3,1.3-2.7,1.7-4.1C48.8,39.5,48.8,26.5,57.8,25.1z
		 M33,49c-8.8,0-16-7.2-16-16c0-8.8,7.2-16,16-16c8.8,0,16,7.2,16,16C49,41.8,41.8,49,33,49z"/><circle cx="33" cy="7" r="6"/><circle cx="33" cy="59" r="6"/><circle cx="51.4" cy="14.6" r="6"/><circle cx="14.6" cy="51.4" r="6"/><circle cx="59" cy="33" r="6"/><circle cx="7" cy="33" r="6"/><circle cx="51.4" cy="51.4" r="6"/><circle cx="14.6" cy="14.6" r="6"/></svg>